<svg xmlns="http://www.w3.org/2000/svg" viewBox="0 0 1283.15039 268.66309" width="180" height="38">
  <g fill="#1A1A1A">
    <path d="M140.12354,134.65332h102.63916v8.20508c0,18.66162-2.19971,35.17871-6.59619,49.5498-4.29102,13.2998-11.53027,25.74023-21.71826,37.32324-23.06055,25.95605-52.39307,38.93164-87.99951,38.93164-34.74902,0-64.51123-12.54785-89.28613-37.64453C12.3877,205.81641,0,175.57129,0,140.28418,0,104.24805,12.60107,73.68115,37.80615,48.58447,63.0083,23.38232,93.68311,10.77881,129.82715,10.77881c19.41113,0,37.53711,3.96924,54.37646,11.90479,16.0874,7.93799,31.90625,20.80811,47.4585,38.61035l-26.70557,25.5791c-20.37842-27.13281-45.20605-40.70166-74.48584-40.70166-26.27783,0-48.31787,9.06445-66.12012,27.18799-17.8042,17.80469-26.70557,40.11377-26.70557,66.9248,0,27.6709,9.91943,50.46191,29.76221,68.37207,18.55371,16.62598,38.66309,24.93652,60.32861,24.93652,18.4458,0,35.01562-6.21875,49.71094-18.66211,14.69238-12.54785,22.89697-27.5625,24.61426-45.04492h-61.9375v-35.23242Z"></path>
    <path d="M424.55273,203.66895h-106.33887l-27.6709,60.3291h-40.37988L373.07275,0l118.56543,263.99805h-41.02344l-26.06201-60.3291Zm-15.2832-35.23145l-36.84033-84.45996-38.61035,84.45996h75.45068Z"></path>
    <path d="M522.6875,263.99805V15.60498h52.12402c24.98828,0,44.72363,2.46826,59.20215,7.40039,15.5498,4.82617,29.65332,13.03076,42.31152,24.61377,25.63086,23.38281,38.44922,54.10986,38.44922,92.18213,0,38.18311-13.35352,69.07178-40.05859,92.66455-13.4082,11.7998-27.45703,20.00488-42.1499,24.61426-13.72998,4.61328-33.1958,6.91797-58.39795,6.91797h-51.48047Zm37.48389-35.23145h16.89209c16.83691,0,30.83301-1.77051,41.98877-5.30957,11.15332-3.75293,21.23584-9.70508,30.24561-17.85742,18.44531-16.83594,27.66992-38.77051,27.66992-65.79834,0-27.24072-9.11719-49.3335-27.34961-66.28076-16.40869-15.12256-40.59521-22.68359-72.55469-22.68359h-16.89209V228.7666Z"></path>
    <path d="M895.59863,203.66895h-106.33887l-27.6709,60.3291h-40.37988L844.11816,0l118.56641,263.99805h-41.02344l-26.0625-60.3291Zm-15.2832-35.23145l-36.84082-84.45996-38.61035,84.45996h75.45117Z"></path>
    <path d="M1031.21777,15.60498v248.39307h-37.48438V15.60498h37.48438Z"></path>
    <path d="M1159.43652,50.83691v213.16113h-37.48438V50.83691h-57.11133V15.60498h151.5459V50.83691h-56.9502Z"></path>
    <path d="M1238.42676,245.97949c0-6.00488,2.19629-11.20605,6.5957-15.60449,4.39648-4.39648,9.65234-6.5957,15.76562-6.5957s11.36719,2.19922,15.76562,6.5957c4.39648,4.39844,6.59668,9.65234,6.59668,15.76562,0,6.22168-2.2002,11.53027-6.59668,15.92676-4.29102,4.28809-9.54688,6.43555-15.76562,6.43555-6.3291,0-11.63867-2.14746-15.92676-6.43555-4.29102-4.28809-6.43457-9.65234-6.43457-16.08789Z"></path>
  </g>
</svg>
